Normalized EMG Linear Envelopes
nRows=191
nColumns=4

endheader
time	 med_gas_r	  soleus_r	 tib_ant_r	
2.56234	  0.086368	  0.116591	  0.041069	
2.62483	  0.079854	  0.109602	  0.036602	
2.68733	  0.076548	  0.105536	  0.033184	
2.74982	  0.077512	  0.106833	  0.031489	
2.81232	  0.081222	  0.111985	  0.031297	
2.87482	  0.084816	  0.116013	  0.031668	
2.93731	  0.086005	  0.116423	  0.031688	
2.99981	  0.084548	  0.115243	  0.031117	
3.0623	  0.082241	  0.114650	  0.030556	
3.1248	  0.081091	  0.114434	  0.030589	
3.1873	  0.081649	  0.114032	  0.031052	
3.24979	  0.083097	  0.113612	  0.031500	
3.31229	  0.083931	  0.113255	  0.031768	
3.37478	  0.082989	  0.114132	  0.032103	
3.43728	  0.081008	  0.119218	  0.032971	
3.49978	  0.079976	  0.129445	  0.034451	
3.56227	  0.080345	  0.140452	  0.036164	
3.62477	  0.080697	  0.145715	  0.037685	
3.68726	  0.079952	  0.142718	  0.038653	
3.74976	  0.078314	  0.135501	  0.038985	
3.81226	  0.076466	  0.130386	  0.038876	
3.87475	  0.074941	  0.129405	  0.038483	
3.93725	  0.074405	  0.130622	  0.038068	
3.99974	  0.075672	  0.133946	  0.038024	
4.06224	  0.078702	  0.141117	  0.038292	
4.12474	  0.082590	  0.149867	  0.038297	
4.18723	  0.087092	  0.152734	  0.037575	
4.24973	  0.092578	  0.145284	  0.036106	
4.31222	  0.098241	  0.136160	  0.034176	
4.37472	  0.102069	  0.144925	  0.032146	
4.43722	  0.102621	  0.187641	  0.030358	
4.49971	  0.099878	  0.258059	  0.029246	
4.56221	  0.094956	  0.316324	  0.029278	
4.6247	  0.089669	  0.317831	  0.030347	
4.6872	  0.085682	  0.265573	  0.031506	
4.7497	  0.083573	  0.205173	  0.031955	
4.81219	  0.082812	  0.169229	  0.031869	
4.87469	  0.082348	  0.157330	  0.031840	
4.93718	  0.081326	  0.158944	  0.032290	
4.99968	  0.080154	  0.170356	  0.033914	
5.06218	  0.081304	  0.192923	  0.038316	
5.12467	  0.088620	  0.223082	  0.047466	
5.18717	  0.105252	  0.246761	  0.061906	
5.24966	  0.131157	  0.250984	  0.079668	
5.31216	  0.160228	  0.243320	  0.097021	
5.37466	  0.181204	  0.246558	  0.110122	
5.43715	  0.188358	  0.267981	  0.117275	
5.49965	  0.188146	  0.292728	  0.120442	
5.56214	  0.186835	  0.311842	  0.123483	
5.62464	  0.182282	  0.328345	  0.128794	
5.68714	  0.176025	  0.335497	  0.136080	
5.74963	  0.176433	  0.325253	  0.143220	
5.81213	  0.183728	  0.313309	  0.147761	
5.87462	  0.190010	  0.320246	  0.148726	
5.93712	  0.195466	  0.339303	  0.148433	
5.99962	  0.205553	  0.351270	  0.152291	
6.06211	  0.216992	  0.353166	  0.164154	
6.12461	  0.223677	  0.349826	  0.181216	
6.1871	  0.225711	  0.336251	  0.196245	
6.2496	  0.225479	  0.308397	  0.204701	
6.3121	  0.225759	  0.281047	  0.207307	
6.37459	  0.227872	  0.275958	  0.207578	
6.43709	  0.229932	  0.291011	  0.209288	
6.49958	  0.232407	  0.301734	  0.215554	
6.56208	  0.237030	  0.299642	  0.229634	
6.62458	  0.242262	  0.302575	  0.254008	
6.68707	  0.247582	  0.320243	  0.285808	
6.74957	  0.253401	  0.335430	  0.316675	
6.81206	  0.256638	  0.325849	  0.339885	
6.87456	  0.252721	  0.289754	  0.353058	
6.93706	  0.239848	  0.245306	  0.354367	
6.99955	  0.223243	  0.210113	  0.343788	
7.06205	  0.211826	  0.187602	  0.326866	
7.12454	  0.207663	  0.174653	  0.311083	
7.18704	  0.207970	  0.173907	  0.300654	
7.24954	  0.212465	  0.189422	  0.296981	
7.31203	  0.220304	  0.214534	  0.300662	
7.37453	  0.229377	  0.234517	  0.311135	
7.43702	  0.237957	  0.240304	  0.325005	
7.49952	  0.242287	  0.233282	  0.337104	
7.56202	  0.240054	  0.220612	  0.344950	
7.62451	  0.232925	  0.210763	  0.349702	
7.68701	  0.224252	  0.212379	  0.351916	
7.7495	  0.221001	  0.236678	  0.349117	
7.812	  0.228496	  0.291164	  0.338495	
7.8745	  0.241316	  0.361577	  0.322023	
7.93699	  0.250393	  0.417233	  0.307275	
7.99949	  0.254768	  0.447145	  0.300280	
8.06198	  0.260622	  0.468092	  0.300775	
8.12448	  0.271828	  0.488906	  0.307460	
8.18698	  0.285060	  0.496274	  0.320083	
8.24947	  0.294209	  0.477565	  0.332553	
8.31197	  0.294060	  0.430088	  0.334771	
8.37446	  0.282867	  0.358604	  0.326151	
8.43696	  0.266262	  0.284658	  0.318912	
8.49946	  0.252269	  0.239774	  0.324055	
8.56195	  0.245817	  0.240245	  0.340230	
8.62445	  0.251018	  0.280141	  0.360653	
8.68694	  0.268087	  0.336504	  0.382187	
8.74944	  0.289562	  0.374695	  0.399968	
8.81194	  0.305621	  0.370262	  0.404940	
8.87443	  0.312080	  0.330735	  0.395416	
8.93693	  0.313261	  0.286655	  0.380765	
8.99942	  0.312866	  0.263408	  0.369199	
9.06192	  0.307430	  0.262199	  0.360461	
9.12442	  0.296012	  0.265231	  0.352521	
9.18691	  0.284818	  0.257422	  0.347857	
9.24941	  0.279331	  0.238274	  0.349096	
9.3119	  0.278500	  0.215172	  0.352765	
9.3744	  0.275930	  0.195185	  0.351965	
9.4369	  0.267208	  0.184225	  0.342895	
9.49939	  0.253537	  0.185401	  0.326991	
9.56189	  0.239729	  0.194770	  0.311528	
9.62438	  0.231788	  0.203822	  0.306193	
9.68688	  0.229063	  0.209060	  0.312505	
9.74938	  0.225121	  0.214946	  0.321715	
9.81187	  0.221813	  0.225810	  0.326660	
9.87437	  0.226520	  0.240782	  0.329016	
9.93686	  0.239860	  0.256325	  0.333132	
9.99936	  0.258783	  0.268622	  0.337141	
10.0619	  0.280113	  0.275877	  0.334012	
10.1244	  0.299390	  0.279359	  0.321348	
10.1868	  0.312671	  0.280439	  0.305122	
10.2493	  0.316428	  0.278126	  0.293067	
10.3118	  0.312153	  0.270302	  0.290307	
10.3743	  0.309205	  0.257761	  0.300317	
10.4368	  0.311927	  0.244902	  0.322058	
10.4993	  0.312976	  0.234729	  0.345962	
10.5618	  0.306242	  0.228482	  0.358501	
10.6243	  0.296165	  0.228974	  0.352030	
10.6868	  0.291014	  0.236081	  0.329867	
10.7493	  0.292904	  0.243701	  0.302507	
10.8118	  0.295137	  0.245404	  0.279255	
10.8743	  0.287944	  0.236942	  0.264001	
10.9368	  0.269356	  0.219626	  0.258231	
10.9993	  0.247881	  0.205757	  0.263514	
11.0618	  0.233886	  0.206832	  0.276212	
11.1243	  0.232873	  0.215231	  0.283542	
11.1868	  0.242319	  0.210424	  0.273089	
11.2493	  0.253232	  0.183356	  0.245210	
11.3118	  0.256599	  0.146216	  0.211544	
11.3743	  0.246905	  0.117454	  0.184382	
11.4368	  0.227571	  0.104748	  0.169832	
11.4993	  0.210732	  0.104301	  0.166781	
11.5618	  0.202769	  0.108574	  0.168798	
11.6243	  0.200891	  0.111690	  0.168441	
11.6868	  0.201934	  0.112054	  0.162263	
11.7492	  0.201721	  0.111704	  0.151709	
11.8117	  0.198380	  0.112862	  0.139843	
11.8742	  0.198655	  0.115913	  0.129557	
11.9367	  0.204601	  0.119631	  0.123012	
11.9992	  0.205761	  0.122266	  0.119721	
12.0617	  0.198058	  0.123318	  0.116884	
12.1242	  0.190400	  0.123805	  0.112962	
12.1867	  0.187747	  0.124662	  0.109429	
12.2492	  0.188387	  0.126182	  0.107967	
12.3117	  0.191939	  0.128025	  0.107331	
12.3742	  0.196799	  0.128912	  0.105858	
12.4367	  0.201356	  0.127867	  0.104477	
12.4992	  0.207894	  0.126205	  0.103399	
12.5617	  0.216227	  0.127082	  0.100751	
12.6242	  0.220762	  0.132144	  0.096893	
12.6867	  0.217177	  0.138410	  0.094132	
12.7492	  0.208118	  0.139989	  0.091836	
12.8117	  0.200627	  0.134593	  0.087490	
12.8742	  0.198459	  0.126237	  0.081854	
12.9367	  0.201504	  0.119795	  0.077605	
12.9992	  0.207799	  0.116409	  0.074788	
13.0617	  0.212517	  0.114933	  0.072183	
13.1242	  0.213555	  0.113869	  0.069499	
13.1867	  0.213258	  0.112217	  0.066466	
13.2492	  0.211548	  0.110030	  0.063383	
13.3116	  0.207880	  0.106811	  0.060955	
13.3741	  0.204889	  0.101487	  0.058479	
13.4366	  0.204028	  0.095712	  0.055301	
13.4991	  0.202712	  0.093224	  0.052539	
13.5616	  0.197022	  0.095358	  0.051413	
13.6241	  0.188734	  0.100448	  0.052183	
13.6866	  0.184521	  0.106174	  0.054632	
13.7491	  0.186032	  0.110463	  0.058238	
13.8116	  0.191123	  0.112556	  0.062518	
13.8741	  0.198763	  0.113988	  0.067046	
13.9366	  0.205951	  0.116487	  0.071433	
13.9991	  0.210321	  0.119469	  0.075362	
14.0616	  0.212491	  0.121134	  0.077207	
14.1241	  0.212357	  0.120732	  0.074515	
14.1866	  0.211254	  0.118876	  0.068039	
14.2491	  0.213042	  0.116834	  0.062878	
14.3116	  0.220710	  0.115582	  0.064524	
14.3741	  0.236174	  0.115095	  0.075089	
14.4366	  0.258225	  0.114868	  0.091993	
